<?xml version="1.0" encoding="UTF-8" standalone="no"?>
<svg
   xmlns:dc="http://purl.org/dc/elements/1.1/"
   xmlns:cc="http://creativecommons.org/ns#"
   xmlns:rdf="http://www.w3.org/1999/02/22-rdf-syntax-ns#"
   xmlns:svg="http://www.w3.org/2000/svg"
   xmlns="http://www.w3.org/2000/svg"
   xmlns:sodipodi="http://sodipodi.sourceforge.net/DTD/sodipodi-0.dtd"
   xmlns:inkscape="http://www.inkscape.org/namespaces/inkscape"
   width="1024"
   height="1024"
   version="1.1"
   viewBox="0 0 768.00001 768.00292"
   id="svg3699"
   sodipodi:docname="logo.svg"
   inkscape:version="0.92.1 r15371">
  <metadata
     id="metadata3703">
    <rdf:RDF>
      <cc:Work
         rdf:about="">
        <dc:format>image/svg+xml</dc:format>
        <dc:type
           rdf:resource="http://purl.org/dc/dcmitype/StillImage" />
      </cc:Work>
    </rdf:RDF>
  </metadata>
  <sodipodi:namedview
     pagecolor="#ffffff"
     bordercolor="#666666"
     borderopacity="1"
     objecttolerance="10"
     gridtolerance="10"
     guidetolerance="10"
     inkscape:pageopacity="0"
     inkscape:pageshadow="2"
     inkscape:window-width="1600"
     inkscape:window-height="837"
     id="namedview3701"
     showgrid="false"
     inkscape:zoom="0.23063834"
     inkscape:cx="-300.77821"
     inkscape:cy="308.07938"
     inkscape:window-x="-8"
     inkscape:window-y="-8"
     inkscape:window-maximized="1"
     inkscape:current-layer="radarr-group-details" />
  <defs
     id="defs3683">
    <clipPath
       id="a">
      <circle
         cx="384"
         cy="384"
         r="375"
         fill="#989898"
         stroke-width="3.5906"
         id="circle3680" />
    </clipPath>
  </defs>
  <g
     id="radarr-group-logo"
     transform="translate(1.14971,-2.0320299)">
    <circle
       id="radarr-black-circle"
       cx="384"
       cy="384"
       r="375"
       style="stroke-width:1.84529996" />
    <path
       id="radarr-honeycomb"
       d="m 675.79,18.683 19.008,10.923 18.814,-10.923 V -3.163 L 694.798,-14.086 675.79,-3.163 Z m -37.628,-21.846 -18.814,-10.923 -18.8,10.923 v 21.846 l 18.8,10.923 18.814,-10.923 V -3.163 l 18.814,-10.923 18.814,10.923 M 638.162,18.683 656.976,29.606 675.79,18.683 M 638.162,62.181 V 84.027 L 656.976,94.95 675.79,84.027 V 62.181 l -18.814,-10.729 -18.814,10.729 -18.814,-10.729 -18.8,10.729 m 75.243,21.846 19.008,10.923 18.814,-10.923 V 62.181 L 694.799,51.452 675.791,62.181 M 694.799,29.606 V 51.452 M 656.977,29.606 v 21.846 m 56.636,-54.615 18.814,-10.923 18.814,10.923 18.814,-10.923 18.814,10.923 18.8,-10.923 18.814,10.923 v 21.846 l 18.814,10.923 v 21.846 l -18.814,10.729 v 21.846 l 18.814,10.923 v 21.846 l -18.814,10.923 v 21.846 l 18.814,10.923 v 21.846 l -18.814,10.715 v 21.846 l 18.814,10.923 v 21.846 l -18.814,10.923 v 21.846 l 18.814,10.923 v 21.846 l -18.814,10.715 v 21.846 l 18.814,10.923 v 21.846 l -18.814,10.937 v 21.846 l 18.814,10.923 v 21.846 l -18.814,10.715 v 21.846 l 18.814,10.923 v 21.846 l -18.814,10.923 v 21.846 l 18.814,10.923 v 21.846 l -18.814,10.715 v 21.846 l 18.814,10.923 v 21.846 l -18.814,10.923 v 21.846 l 18.814,10.923 v 21.846 l -18.814,10.729 v 21.846 l 18.814,10.923 v 21.846 l -18.814,10.923 -18.814,-10.923 -18.8,10.923 -18.814,-10.923 -18.814,10.923 -18.814,-10.923 -18.814,10.923 -18.814,-10.923 -19.008,10.923 -18.814,-10.923 -18.814,10.923 -18.814,-10.923 -18.8,10.923 -18.814,-10.923 -18.814,10.923 -18.814,-10.923 -18.814,10.923 -18.814,-10.923 -19.008,10.923 -18.814,-10.923 -18.814,10.923 -18.814,-10.923 -18.8,10.923 -18.814,-10.923 -18.814,10.923 -18.814,-10.923 -18.814,10.923 -18.814,-10.923 -18.8,10.923 -18.814,-10.923 -18.814,10.923 -18.814,-10.923 -19.008,10.923 -18.814,-10.923 -18.814,10.923 -18.814,-10.923 -18.814,10.923 -18.814,-10.923 -18.814,10.923 -18.8,-10.923 -18.814,10.923 -18.814,-10.923 -19.008,10.923 -18.814,-10.923 -18.814,10.923 -18.814,-10.923 -18.814,10.923 -18.814,-10.923 v -21.846 l -18.814,-10.923 v -21.846 l 18.814,-10.729 v -21.846 l -18.814,-10.923 v -21.846 l 18.814,-10.923 v -21.846 l -18.814,-10.923 v -21.846 l 18.814,-10.715 v -21.846 l -18.814,-10.923 v -21.846 l 18.814,-10.923 v -21.846 l -18.814,-10.923 v -21.846 l 18.814,-10.715 v -21.846 l -18.814,-10.923 v -21.846 l 18.814,-10.937 v -21.846 l -18.814,-10.923 v -21.846 l 18.814,-10.715 v -21.846 l -18.814,-10.923 v -21.846 l 18.814,-10.923 v -21.846 l -18.814,-10.923 v -21.846 l 18.814,-10.715 v -21.846 l -18.814,-10.923 v -21.846 l 18.814,-10.923 V 94.95 L -77.295,84.027 V 62.181 L -58.481,51.452 V 29.606 L -77.295,18.683 V -3.163 l 18.814,-10.923 18.814,10.923 18.814,-10.923 18.814,10.923 18.814,-10.923 18.814,10.923 19.008,-10.923 18.814,10.923 18.814,-10.923 18.8,10.923 18.814,-10.923 18.814,10.923 18.814,-10.923 18.814,10.923 18.814,-10.923 18.814,10.923 19.008,-10.923 18.814,10.923 18.814,-10.923 18.814,10.923 18.8,-10.923 18.814,10.923 18.814,-10.923 18.814,10.923 18.814,-10.923 18.814,10.923 18.8,-10.923 18.814,10.923 18.814,-10.923 18.814,10.923 19.008,-10.923 18.814,10.923 18.814,-10.923 18.814,10.923 18.814,-10.923 18.814,10.923 m -37.628,0 v 21.846 l 18.814,10.923 18.814,-10.923 M 562.921,62.181 V 84.027 L 581.735,94.95 600.549,84.027 V 62.181 L 581.735,51.452 562.921,62.181 544.107,51.452 525.293,62.181 M 619.35,29.606 V 51.452 M 581.736,29.606 v 21.846 m 18.814,76.267 v 21.846 l 18.8,10.923 18.814,-10.923 v -21.846 l -18.814,-10.923 -18.8,10.923 -18.814,-10.923 -18.814,10.923 v 21.846 l 18.814,10.923 18.814,-10.923 M 638.164,84.027 619.35,94.95 v 21.846 m -18.8,-32.769 18.8,10.923 m -37.614,0 v 21.846 m 0,43.692 v 21.846 l 18.814,10.715 18.8,-10.715 V 160.488 M 656.978,94.95 v 21.846 l 18.814,10.923 19.008,-10.923 V 94.95 m -37.822,21.846 -18.814,10.923 m -18.814,54.615 18.814,10.715 18.814,-10.715 v -21.846 l -18.814,-10.923 m 37.628,-21.846 v 21.846 l 19.008,10.923 18.814,-10.923 V 127.719 L 694.8,116.796 m 0,43.692 v 21.846 l 18.814,10.715 18.814,-10.715 v -21.846 l -18.814,-10.923 m -56.636,10.923 18.814,-10.923 M 525.292,-3.165 V 18.681 L 544.106,29.604 562.92,18.681 M 449.84,-3.165 v 21.846 l 18.814,10.923 18.814,-10.923 V -3.165 m 0,21.846 19.008,10.923 18.814,-10.923 M 487.468,62.179 V 84.025 L 506.476,94.948 525.29,84.025 V 62.179 L 506.476,51.45 487.468,62.179 468.654,51.45 449.84,62.179 v 21.846 l 18.814,10.923 18.814,-10.923 M 468.654,29.604 V 51.45 m 75.45,-21.846 V 51.45 M 506.476,29.604 V 51.45 M 412.225,-3.165 v 21.846 l 18.8,10.923 18.814,-10.923 M 374.596,-3.165 V 18.681 L 393.41,29.604 412.224,18.681 M 393.41,51.45 374.596,62.179 V 84.025 L 393.41,94.948 412.224,84.025 V 62.179 Z m 56.429,10.729 -18.814,-10.729 -18.8,10.729 M 393.411,29.604 V 51.45 M 431.025,29.604 V 51.45 m 18.814,32.575 -18.814,10.923 v 21.846 l 18.814,10.923 18.814,-10.923 V 94.948 m -75.243,0 v 21.846 l 18.814,10.923 18.8,-10.923 m -37.614,65.538 18.814,10.715 18.8,-10.715 v -21.846 l -18.8,-10.923 -18.814,10.923 v 21.846 l -18.814,10.715 v 21.846 l 18.814,10.923 18.814,-10.923 v -21.846 m 18.8,-32.561 18.814,-10.923 v -21.846 m -37.614,-43.692 18.8,10.923 m -18.8,54.615 v -21.846 m 94.251,-32.769 v 21.846 l 18.814,10.923 18.814,-10.923 V 94.948 L 525.289,84.025 m -75.45,65.538 18.814,10.923 18.814,-10.923 v -21.846 l -18.814,-10.923 m 37.822,0 -19.008,10.923 m 19.008,54.615 18.814,10.715 18.814,-10.715 v -21.846 l -18.814,-10.923 -18.814,10.923 v 21.846 l -19.008,10.715 v 21.846 l -18.814,10.923 v 21.846 l 18.814,10.923 19.008,-10.923 v -21.846 l -19.008,-10.923 m -56.442,-32.561 18.814,10.715 18.814,-10.715 v -21.846 m 18.814,-10.923 19.008,10.923 m 18.814,-10.923 v -21.846 m 0,65.33 v 21.846 l 18.814,10.923 18.814,-10.923 v -21.846 l -18.814,-10.715 m -56.636,76.253 v 21.846 l 19.008,10.923 18.814,-10.923 v -21.846 l -18.814,-10.923 m 18.814,32.769 18.814,10.923 18.814,-10.923 v -21.846 l -18.814,-10.923 -18.814,10.923 m -18.814,-32.769 18.814,-10.923 m 18.814,10.923 v 21.846 m -75.45,-21.846 -18.814,-10.923 -18.814,10.923 v 21.846 l 18.814,10.923 18.814,-10.923 m -18.814,-32.769 v -21.846 m -56.429,54.615 -18.814,10.923 v 21.846 l 18.814,10.923 18.814,-10.923 v -21.846 z m 18.814,32.769 18.8,10.923 18.814,-10.923 v -21.846 m -56.429,-32.769 v 21.846 m 37.614,0 -18.8,10.923 m 0,-43.692 18.8,10.923 m 0,87.384 -18.8,10.715 v 21.846 l 18.8,10.923 18.814,-10.923 v -21.846 z m 0,-21.846 V 313.2 M 393.409,291.354 V 313.2 l 18.814,10.715 m 0,21.846 -18.814,10.923 v 21.846 l 18.814,10.937 18.8,-10.937 v -21.846 m 94.265,-32.769 v 21.846 l 18.814,10.923 18.814,-10.923 V 323.915 L 544.102,313.2 Z m 18.814,-32.561 V 313.2 m -56.636,-32.769 -18.814,10.923 V 313.2 l 18.814,10.715 19.008,-10.715 v -21.846 m -56.636,54.407 18.814,10.923 18.814,-10.923 v -21.846 m 37.822,21.846 -18.814,10.923 v 21.846 l 18.814,10.937 18.814,-10.937 v -21.846 m -113.08,21.846 18.814,10.937 18.814,-10.937 v -21.846 m 18.814,-10.923 19.008,10.923 m 0,-43.484 18.814,10.715 m -75.45,-43.484 18.814,10.923 m 0,21.846 -18.814,10.715 m 244.96,-141.58 -19.008,10.715 v 21.846 l 19.008,10.923 18.814,-10.923 V 193.05 m -75.451,0 v 21.846 l 18.814,10.923 18.814,-10.923 m -37.628,65.538 18.814,10.923 18.814,-10.923 v -21.846 l -18.814,-10.923 -18.814,10.923 v 21.846 l -18.814,10.923 v 21.846 m 56.442,-32.769 19.008,10.923 18.814,-10.923 v -21.846 l -18.814,-10.923 -19.008,10.923 m 19.008,-32.769 v 21.846 m -37.822,-21.846 v 21.846 M 600.544,193.05 v 21.846 l 18.8,10.923 18.814,-10.923 m -75.243,0 18.814,10.923 18.814,-10.923 m -37.628,65.538 18.814,10.923 18.814,-10.923 v -21.846 l -18.814,-10.923 -18.814,10.923 m 75.243,0 -18.814,-10.923 -18.8,10.923 m 18.8,-32.769 v 21.846 M 581.73,225.819 v 21.846 m 18.814,76.253 v 21.846 l 18.8,10.923 18.814,-10.923 v -21.846 l -18.814,-10.715 -18.8,10.715 -18.814,-10.715 -18.814,10.715 m 18.814,-32.561 v 21.846 m 18.814,32.561 -18.814,10.923 v 21.846 l 18.814,10.937 18.8,-10.937 v -21.846 m -56.429,-10.923 18.814,10.923 m 113.06,-65.33 v 21.846 l 18.814,10.715 18.814,-10.715 v -21.846 l -18.814,-10.923 m -18.814,32.769 -19.008,10.715 v 21.846 l 19.008,10.923 18.814,-10.923 v -21.846 m -56.636,-32.561 v 21.846 l 18.814,10.715 m -18.814,-10.715 -18.814,10.715 m 37.628,21.846 -18.814,10.923 v 21.846 l 18.814,10.937 19.008,-10.937 v -21.846 m -56.636,-10.923 18.814,10.923 m -56.429,-76.253 18.8,10.923 m -56.429,-163.64 -18.814,-10.923 m 0,43.692 18.814,-10.923 M 544.095,94.948 562.909,84.025 m 94.057,98.307 18.814,10.715 m -94.057,-10.715 -18.814,10.715 m -75.45,0 -18.814,-10.715 m 339.01,-152.73 -18.8,-10.923 -18.814,10.923 v 21.846 l 18.814,10.729 18.8,-10.729 V 29.602 l 18.814,-10.923 m 0,43.498 -18.814,-10.729 m -18.8,-54.615 v 21.846 m -75.257,0 18.814,10.923 18.814,-10.923 V -3.167 m -37.628,87.19 18.814,10.923 18.814,-10.923 V 62.177 L 732.412,51.448 713.598,62.177 m 37.628,0 18.814,-10.729 M 732.412,29.602 v 21.846 m 18.814,-32.769 18.814,10.923 m 0,65.344 v 21.846 l 18.814,10.923 18.8,-10.923 V 94.946 L 788.854,84.023 770.04,94.946 751.226,84.023 m -18.814,76.461 18.814,-10.923 v -21.846 l -18.814,-10.923 -18.814,10.923 m 18.814,-32.769 v 21.846 m 37.628,43.692 v 21.846 l 18.814,10.715 18.8,-10.715 v -21.846 l -18.8,-10.923 -18.814,10.923 -18.814,-10.923 m 37.628,-21.846 v 21.846 m -37.628,-21.846 18.814,-10.923 m 56.429,10.923 -18.814,-10.923 m 0,-21.846 18.814,-10.923 m -18.814,76.461 18.814,-10.923 M 788.854,62.177 v 21.846 m 0,109.02 v 21.846 l 18.8,10.923 18.814,-10.923 m -37.615,0 -18.814,10.923 v 21.846 l 18.814,10.923 18.8,-10.923 v -21.846 m 18.814,32.769 -18.814,-10.923 m -94.057,-32.769 18.814,10.923 18.814,-10.923 V 193.043 L 732.41,182.328 m 0,109.02 18.814,-10.923 v -21.846 l -18.814,-10.923 -18.814,10.923 m 75.257,0 v 21.846 l 18.8,10.923 18.814,-10.923 m -75.243,-21.846 18.814,-10.923 M 732.41,225.81 v 21.846 m 18.814,-32.769 18.814,10.923 m -37.628,87.384 18.814,10.715 18.814,-10.715 v -21.846 l -18.814,-10.923 m 0,43.484 v 21.846 l 18.814,10.923 18.814,-10.923 v -21.846 l -18.814,-10.715 m -56.443,32.561 18.814,10.923 18.814,-10.923 m -18.814,10.923 v 21.846 l 18.814,10.937 18.814,-10.937 v -21.846 m 18.814,-32.769 18.8,-10.715 v -21.846 m 18.814,32.561 -18.814,-10.715 m -18.8,32.561 18.8,10.923 18.814,-10.923 m -56.429,32.769 18.814,10.937 18.8,-10.937 v -21.846 m -37.614,-65.33 18.814,-10.923 m 37.615,-87.384 -18.814,-10.715 m -56.429,10.715 18.814,-10.715 m 37.614,239.9 -18.8,-10.923 -18.814,10.923 v 21.846 l 18.814,10.715 18.8,-10.715 v -21.846 l 18.814,-10.923 m 0,43.484 -18.814,-10.715 m -18.8,-54.615 v 21.846 m -37.628,-21.846 v 21.846 l 18.814,10.923 m -56.443,-10.923 -18.814,10.923 v 21.846 l 18.814,10.715 18.814,-10.715 V 422.226 L 713.593,411.303 V 389.457 L 694.779,378.52 m 56.443,32.783 -18.814,10.923 m 37.628,21.846 -18.814,10.715 v 21.846 l 18.814,10.923 18.814,-10.923 v -21.846 m -94.071,-10.715 -19.008,10.715 v 21.846 l 19.008,10.923 18.814,-10.923 v -21.846 m 18.814,-10.715 18.814,10.715 m 18.814,54.615 -18.814,10.923 v 21.846 l 18.814,10.923 18.814,-10.923 v -21.846 z m 0,-21.846 v 21.846 m -18.814,-32.769 -18.814,10.923 v 21.846 l 18.814,10.923 m -18.814,-10.923 -18.814,10.923 v 21.846 l 18.814,10.923 18.814,-10.923 m -18.814,10.923 v 21.846 l 18.814,10.715 18.814,-10.715 v -21.846 m 18.814,-32.769 18.8,-10.923 v -21.846 l -18.8,-10.923 m 37.615,43.692 -18.814,-10.923 m -37.614,65.538 18.814,10.715 18.8,-10.715 v -21.846 l -18.8,-10.923 m 18.8,10.923 18.814,-10.923 m -112.87,-65.538 18.814,10.923 m 75.243,0 18.814,-10.923 m -37.615,109.02 v 21.846 l 18.8,10.923 18.814,-10.923 m 0,43.692 -18.814,-10.923 -18.8,10.923 v 21.846 l 18.8,10.923 18.814,-10.923 M 807.65,640.268 v -21.846 m -18.8,-10.923 -18.814,10.923 v 21.846 l 18.814,10.923 m -56.443,-76.253 -18.814,10.715 v 21.846 l 18.814,10.923 18.814,-10.923 v -21.846 m -18.814,98.307 18.814,-10.923 v -21.846 l -18.814,-10.923 -18.814,10.923 v 21.846 l 18.814,10.923 v 21.846 l 18.814,10.729 18.814,-10.729 m -18.814,-32.769 18.814,10.923 18.814,-10.923 m -18.814,-32.769 -18.814,10.923 m 0,-43.692 18.814,10.923 m -37.628,0 v 21.846 m 37.628,43.692 v 21.846 l 18.814,10.729 18.8,-10.729 V 683.96 m -94.057,-10.923 -18.814,10.923 v 21.846 l 18.814,10.729 18.814,-10.729 m -18.814,10.729 v 21.846 l 18.814,10.923 18.814,-10.923 v -21.846 m -18.814,32.769 v 21.846 m 75.243,0 v -21.846 l -18.8,-10.923 -18.814,10.923 v 21.846 m 18.814,-54.615 v 21.846 m -18.814,10.923 -18.814,-10.923 m 75.243,-21.846 -18.814,-10.729 m 0,43.498 18.814,-10.923 m 0,-152.73 -18.814,-10.715 M 675.77,389.456 v 21.846 l 19.008,10.923 m -37.822,-43.706 -18.814,10.937 v 21.846 l 18.814,10.923 18.814,-10.923 m 0,43.484 -18.814,-10.715 -18.814,10.715 v 21.846 l 18.814,10.923 18.814,-10.923 m -18.814,-32.561 v -21.846 m -56.429,-32.769 v 21.846 l 18.8,10.923 18.814,-10.923 m -56.429,-32.783 -18.814,10.937 v 21.846 l 18.814,10.923 18.814,-10.923 m -37.628,65.33 18.814,10.923 18.814,-10.923 v -21.846 l -18.814,-10.715 -18.814,10.715 v 21.846 l -18.814,10.923 v 21.846 m 56.442,-54.615 18.8,-10.715 v -21.846 m -37.614,0 v 21.846 m 18.814,76.253 v 21.846 l 18.8,10.923 18.814,-10.923 v -21.846 l -18.814,-10.923 z m 37.614,-43.692 -18.814,10.923 v 21.846 m -37.614,-21.846 v 21.846 l 18.814,10.923 m -18.814,-10.923 -18.814,10.923 v 21.846 l 18.814,10.923 18.814,-10.923 m -18.814,10.923 v 21.846 l 18.814,10.715 18.8,-10.715 v -21.846 m 75.45,-65.538 v 21.846 l 18.814,10.923 m -18.814,-10.923 -19.008,10.923 v 21.846 l 19.008,10.923 18.814,-10.923 m -75.451,-21.846 18.814,-10.923 v -21.846 m 18.814,54.615 -18.814,10.923 v 21.846 l 18.814,10.715 19.008,-10.715 v -21.846 m -56.636,-10.923 18.814,10.923 m 18.814,-32.769 -18.814,-10.923 m -56.429,-32.769 18.8,10.923 m 0,-43.484 18.814,10.715 m -131.69,-76.267 -19.008,10.937 v 21.846 l 19.008,10.923 18.814,-10.923 v -21.846 m -18.814,32.769 v 21.846 l 18.814,10.715 18.814,-10.715 v -21.846 l -18.814,-10.923 m -75.45,-21.846 v 21.846 l 18.814,10.923 18.814,-10.923 m 19.008,32.769 -19.008,10.715 v 21.846 l 19.008,10.923 18.814,-10.923 v -21.846 m -37.822,0 -18.814,-10.715 -18.814,10.715 v 21.846 l 18.814,10.923 18.814,-10.923 m -18.814,-32.561 v -21.846 m -18.814,-10.923 -18.814,10.923 v 21.846 l 18.814,10.715 m -56.429,-76.267 -18.814,10.937 v 21.846 l 18.814,10.923 18.814,-10.923 v -21.846 m 0,65.33 -18.814,-10.715 -18.814,10.715 v 21.846 l 18.814,10.923 18.814,-10.923 v -21.846 l 18.8,-10.715 m 0,-21.846 -18.8,-10.923 m -18.814,10.923 v 21.846 m 37.614,65.33 -18.8,10.923 v 21.846 l 18.8,10.923 18.814,-10.923 v -21.846 z m 18.814,-32.769 -18.814,10.923 v 21.846 m -37.614,-21.846 v 21.846 l 18.814,10.923 m 0,21.846 -18.814,10.923 v 21.846 l 18.814,10.715 18.8,-10.715 v -21.846 m 131.89,-32.769 -18.814,-10.923 -18.814,10.923 v 21.846 l 18.814,10.923 18.814,-10.923 m -94.265,-54.615 v 21.846 l 18.814,10.923 19.008,-10.923 v -21.846 m -37.822,87.384 18.814,10.715 19.008,-10.715 v -21.846 l -19.008,-10.923 -18.814,10.923 v 21.846 l -18.814,10.715 V 607.5 l 18.814,10.923 18.814,-10.923 m 19.008,-32.561 18.814,10.715 18.814,-10.715 v -21.846 m -37.628,0 18.814,-10.923 m -37.822,-21.846 v 21.846 m 37.822,-21.846 -18.814,-10.923 m 18.814,-32.769 18.814,10.923 m -75.45,21.846 -18.814,10.923 m 0,21.846 18.814,10.923 m -56.429,-76.461 18.8,10.923 m 94.265,119.95 -18.814,10.923 v 21.846 l 18.814,10.923 18.814,-10.923 v -21.846 l -18.814,-10.923 v -21.846 m -37.822,0 v 21.846 l 19.008,10.923 m 0,21.846 -19.008,10.923 v 21.846 l 19.008,10.923 18.814,-10.923 v -21.846 m -37.822,0 -18.814,-10.923 -18.814,10.923 v 21.846 l 18.814,10.923 18.814,-10.923 m 19.008,10.923 v 21.846 l 18.814,10.729 18.814,-10.729 v -21.846 l -18.814,-10.923 m -56.636,-32.769 v -21.846 m -56.429,-32.769 v 21.846 l 18.8,10.923 18.814,-10.923 m -56.429,-32.561 -18.814,10.715 v 21.846 l 18.814,10.923 18.814,-10.923 m -18.814,32.769 -18.814,10.923 v 21.846 l 18.814,10.923 18.814,-10.923 v -21.846 z m 56.429,32.769 -18.814,10.923 v 21.846 l 18.814,10.729 18.814,-10.729 v -21.846 m -37.628,-65.538 v 21.846 l 18.814,10.923 m -56.429,-32.769 v 21.846 m 18.814,10.923 18.8,-10.923 m 0,43.692 -18.8,-10.923 m -18.814,10.923 v 21.846 l 18.814,10.729 18.8,-10.729 m 0,65.344 V 749.31 l -18.8,-10.923 -18.814,10.923 v 21.846 m 75.243,0 V 749.31 l -18.814,-10.923 -18.814,10.923 m -18.8,-10.923 v -21.846 m 37.614,21.846 v -21.846 m 18.814,32.769 18.814,-10.923 v -21.846 l -18.814,-10.729 m 37.822,0 -19.008,10.729 m 19.008,54.615 V 749.31 L 487.435,738.387 M 581.7,771.156 V 749.31 l -18.814,-10.923 -18.814,10.923 v 21.846 m -18.814,-54.615 v 21.846 l 18.814,10.923 m -37.628,0 18.814,-10.923 m 150.5,-152.73 v 21.846 l 19.008,10.923 18.814,-10.923 m -56.636,-32.561 -18.814,10.715 v 21.846 l 18.814,10.923 18.814,-10.923 m -18.814,76.461 18.814,-10.923 v -21.846 l -18.814,-10.923 -18.814,10.923 v 21.846 l 18.814,10.923 v 21.846 l 18.814,10.729 19.008,-10.729 m 18.814,-54.615 -18.814,-10.923 -19.008,10.923 m 0,21.846 19.008,10.923 m 0,-43.692 v -21.846 m -37.822,0 v 21.846 m -56.429,-54.615 v 21.846 l 18.8,10.923 18.814,-10.923 M 581.7,574.942 562.886,585.657 v 21.846 l 18.814,10.923 18.814,-10.923 m -37.628,43.692 v 21.846 l 18.814,10.923 18.814,-10.923 V 651.195 L 581.7,640.272 562.886,651.195 544.072,640.272 m 94.057,10.923 -18.814,-10.923 -18.8,10.923 m 0,21.846 18.8,10.923 18.814,-10.923 m -18.814,-54.615 v 21.846 m -37.614,-21.846 v 21.846 m 0,43.692 v 21.846 l 18.814,10.729 18.8,-10.729 v -21.846 m -37.614,21.846 -18.814,10.729 v 21.846 m 56.429,32.769 v -21.846 l -18.8,-10.923 -18.814,10.923 m 18.814,-10.923 v -21.846 m 18.8,-10.729 18.814,10.729 18.814,-10.729 m -18.814,10.729 v 21.846 l 18.814,10.923 18.814,-10.923 v -21.846 m -18.814,32.769 v 21.846 m 37.822,0 v -21.846 l -19.008,-10.923 m -56.442,10.923 18.814,-10.923 m -75.243,-283.6 -18.814,-10.715 m 0,-21.846 18.814,-10.923 m -18.814,272.66 18.814,-10.923 M 544.073,618.423 562.887,607.5 m 0,-21.846 -18.814,-10.715 m 94.057,10.715 -18.814,-10.715 m -169.51,10.715 -18.814,-10.715 m 131.89,141.6 -18.814,-10.729 m 150.69,43.498 18.814,-10.923 m 0,-152.73 -18.814,-10.715 m 37.628,-196.42 -18.814,10.937 m -150.69,0 -18.814,-10.937 m 94.057,10.937 -18.814,-10.937 m 207.14,10.937 -18.814,-10.937 m -320.2,10.937 -18.814,-10.937 M -2.077,-3.18 V 18.666 L 16.737,29.589 35.551,18.666 V -3.18 m 0,21.846 19.008,10.923 18.814,-10.923 V -3.18 m -113.08,0 V 18.666 L -20.893,29.589 -2.079,18.666 M -20.893,51.435 -39.707,62.164 V 84.01 L -20.893,94.933 -2.079,84.01 V 62.164 Z M -2.079,84.01 16.735,94.933 35.549,84.01 V 62.164 L 16.735,51.435 -2.079,62.164 M 35.549,84.01 54.557,94.933 73.371,84.01 V 62.164 L 54.557,51.435 35.549,62.164 M -20.893,29.589 V 51.435 M 16.735,29.589 V 51.435 M 54.557,29.589 V 51.435 M -58.523,29.589 -39.709,18.666 m 0,43.498 -18.814,-10.729 m 0,109.04 18.814,-10.923 v -21.846 l -18.814,-10.923 m 0,-21.846 18.814,-10.923 m 56.442,32.769 -18.814,10.923 v 21.846 l 18.814,10.923 18.814,-10.923 V 127.706 L 16.733,116.783 V 94.937 m 18.814,54.615 19.008,10.923 18.814,-10.923 V 127.706 L 54.555,116.783 35.547,127.706 M 54.555,94.937 v 21.846 m -75.45,-21.846 v 21.846 l 18.814,10.923 m 0,21.846 -18.814,10.923 v 21.846 l 18.814,10.715 18.814,-10.715 v -21.846 m 37.822,0 v 21.846 l 18.814,10.715 18.814,-10.715 V 160.475 L 73.369,149.552 m -94.265,-32.769 -18.814,10.923 m 0,21.846 18.814,10.923 m 56.442,54.407 -18.814,10.923 v 21.846 l 18.814,10.923 19.008,-10.923 v -21.846 z m 19.008,-32.561 -19.008,10.715 v 21.846 m -56.442,-32.561 -18.814,10.715 v 21.846 l 18.814,10.923 18.814,-10.923 v -21.846 m 0,65.538 -18.814,-10.923 -18.814,10.923 v 21.846 l 18.814,10.923 18.814,-10.923 v -21.846 l 18.814,-10.923 m 18.814,10.923 V 280.42 L 54.554,291.343 73.368,280.42 V 258.574 L 54.554,247.651 m -75.45,-21.846 v 21.846 M 16.732,225.805 -2.082,214.882 m -56.443,10.923 18.814,-10.923 m 0,43.692 -18.814,-10.923 m 0,109.02 18.814,-10.923 v -21.846 l -18.814,-10.715 m 94.071,10.715 v 21.846 l 19.008,10.923 18.814,-10.923 V 323.902 L 54.554,313.187 Z m 19.008,-32.561 v 21.846 M 35.546,280.418 16.732,291.341 v 21.846 l 18.814,10.715 m -56.442,-32.561 v 21.846 l 18.814,10.715 18.814,-10.715 m -37.628,43.484 v 21.846 l 18.814,10.937 18.814,-10.937 V 356.671 L -2.082,345.748 Z m 75.45,0 v 21.846 l 18.814,10.937 18.814,-10.937 V 356.671 L 73.368,345.748 M 16.732,356.671 35.546,345.748 M -2.082,323.902 v 21.846 m 0,-65.33 18.814,10.923 m -37.628,21.846 -18.814,10.715 m 0,21.846 18.814,10.923 m -37.628,-65.33 18.814,-10.923 M 35.547,193.034 16.733,182.319 m -56.442,10.715 -18.814,-10.715 m 395.46,-185.5 v 21.846 l 18.814,10.923 18.814,-10.923 M 299.322,-3.181 v 21.846 l 18.8,10.923 18.814,-10.923 m -18.814,32.769 -18.8,10.729 v 21.846 l 18.8,10.923 18.814,-10.923 V 62.163 L 318.122,51.434 V 29.588 M 374.564,62.163 355.75,51.434 336.936,62.163 M 355.75,51.434 V 29.588 M 261.693,-3.181 v 21.846 l 18.814,10.923 18.814,-10.923 m -75.45,-21.846 v 21.846 l 19.008,10.923 18.814,-10.923 m -37.822,43.498 v 21.846 l 19.008,10.923 18.814,-10.923 V 62.163 L 242.879,51.434 223.871,62.163 205.057,51.434 186.243,62.163 m 113.08,0 -18.814,-10.729 -18.814,10.729 M 242.881,29.588 v 21.846 m 37.628,-21.846 v 21.846 m 18.814,32.575 -18.814,10.923 v 21.846 l 18.814,10.923 18.8,-10.923 V 94.932 m -56.429,-10.923 18.814,10.923 m 0,21.846 -18.814,10.923 v 21.846 l 18.814,10.923 18.814,-10.923 v -21.846 m -75.45,-43.692 -18.814,10.923 v 21.846 l 18.814,10.923 19.008,-10.923 V 94.932 m 18.814,54.615 -18.814,10.923 v 21.846 l 18.814,10.715 18.814,-10.715 V 160.47 m -56.636,-32.769 v 21.846 l 19.008,10.923 m 18.814,-32.769 -18.814,-10.923 m 94.057,-32.769 18.814,10.923 18.814,-10.923 m -18.814,32.769 -18.814,10.923 v 21.846 l 18.814,10.923 18.814,-10.923 V 127.701 L 355.751,116.778 V 94.932 m -37.628,21.846 18.814,10.923 m 0,21.846 -18.814,10.923 v 21.846 l 18.814,10.715 18.814,-10.715 V 160.47 m -37.628,0 -18.8,-10.923 M 186.243,-3.183 v 21.846 l 18.814,10.923 18.814,-10.923 M 148.614,-3.183 v 21.846 l 18.814,10.923 18.814,-10.923 M 148.614,62.161 V 84.007 L 167.428,94.93 186.242,84.007 V 62.161 L 167.428,51.432 148.614,62.161 129.8,51.432 110.986,62.161 M 205.057,29.586 V 51.432 M 167.429,29.586 V 51.432 M 110.987,-3.183 v 21.846 l 18.814,10.923 18.814,-10.923 m -75.243,0 18.814,10.923 18.8,-10.923 M 73.372,84.007 92.186,94.93 110.986,84.007 V 62.161 L 92.186,51.432 73.372,62.161 M 129.801,29.586 V 51.432 M 92.187,29.586 v 21.846 m 18.8,32.575 18.814,10.923 18.814,-10.923 M 129.801,94.93 v 21.846 l 18.814,10.923 18.814,-10.923 V 94.93 m -37.628,21.846 -18.814,10.923 v 21.846 l 18.814,10.923 18.814,-10.923 v -21.846 m -75.243,0 18.814,-10.923 V 94.93 m 37.614,65.538 v 21.846 l 18.814,10.715 18.814,-10.715 v -21.846 l -18.814,-10.923 m -37.628,-21.846 -18.8,-10.923 m 0,43.692 18.8,-10.923 m 75.257,-65.538 18.814,10.923 m 0,21.846 -18.814,10.923 v 21.846 l 18.814,10.923 18.814,-10.923 m -56.442,32.769 18.814,10.715 18.814,-10.715 v -21.846 m -37.628,-43.692 18.814,10.923 m -18.814,32.769 18.814,-10.923 m 0,43.484 v 21.846 l 18.814,10.923 18.814,-10.923 v -21.846 l -18.814,-10.715 m -56.442,10.715 v 21.846 l 18.814,10.923 18.814,-10.923 m -37.628,65.538 18.814,10.923 18.814,-10.923 v -21.846 l -18.814,-10.923 -18.814,10.923 v 21.846 l -18.814,10.923 v 21.846 m 56.442,-32.769 18.814,10.923 18.814,-10.923 v -21.846 l -18.814,-10.923 -18.814,10.923 m 18.814,-32.769 v 21.846 m -37.628,-21.846 v 21.846 m -37.628,-65.33 -18.814,10.715 v 21.846 l 18.814,10.923 18.814,-10.923 M 73.372,193.029 v 21.846 l 18.814,10.923 18.8,-10.923 m -37.614,65.538 18.814,10.923 18.8,-10.923 v -21.846 l -18.8,-10.923 -18.814,10.923 m 75.243,0 -18.814,-10.923 -18.814,10.923 m -18.8,-32.769 v 21.846 m 37.614,-21.846 v 21.846 m -18.814,76.253 v 21.846 l 18.814,10.923 18.814,-10.923 v -21.846 l -18.814,-10.715 -18.814,10.715 -18.8,-10.715 -18.814,10.715 m 18.814,-32.561 v 21.846 m 37.614,43.484 v 21.846 l 18.814,10.937 18.814,-10.937 v -21.846 l -18.814,-10.923 m -56.429,10.923 18.8,-10.923 m 94.071,-54.407 v 21.846 l 18.814,10.715 19.008,-10.715 v -21.846 l -19.008,-10.923 m -18.814,32.769 -18.814,10.715 v 21.846 l 18.814,10.923 18.814,-10.923 v -21.846 m -37.628,0 -18.814,-10.715 -18.814,10.715 m 18.814,-32.561 v 21.846 m 37.628,43.484 v 21.846 l 18.814,10.937 19.008,-10.937 v -21.846 l -19.008,-10.923 m -56.442,10.923 18.814,-10.923 m -75.257,-65.33 18.814,10.923 m 207.14,-98.307 v 21.846 l 18.814,10.923 18.814,-10.923 m -37.628,0 -18.814,10.923 v 21.846 l 18.814,10.923 18.814,-10.923 v -21.846 m -37.628,21.846 -18.8,10.923 v 21.846 l 18.8,10.923 18.814,-10.923 v -21.846 m 37.628,0 -18.814,-10.923 m -94.057,-54.615 v 21.846 l 18.814,10.923 18.814,-10.923 v -21.846 l -18.814,-10.715 m -56.636,32.561 19.008,10.923 18.814,-10.923 m -18.814,76.461 18.814,-10.923 v -21.846 l -18.814,-10.923 -19.008,10.923 m 75.45,0 -18.814,-10.923 -18.814,10.923 m -18.814,-32.769 v 21.846 m 37.628,-21.846 v 21.846 m 18.814,32.769 -18.814,10.923 v 21.846 l 18.814,10.715 18.8,-10.715 v -21.846 m -37.614,21.846 -18.814,10.715 v 21.846 l 18.814,10.923 18.814,-10.923 v -21.846 m -18.814,32.769 v 21.846 l 18.814,10.937 18.8,-10.937 v -21.846 l -18.8,-10.923 m -37.628,-21.846 -18.814,-10.715 m 0,43.484 18.814,-10.923 m 94.057,-32.561 -18.814,10.715 v 21.846 l 18.814,10.923 18.814,-10.923 V 323.897 L 355.754,313.182 V 291.336 L 336.94,280.413 m 0,43.484 -18.814,-10.715 m 0,43.484 18.814,-10.923 m -18.814,32.769 18.814,10.937 18.814,-10.937 v -21.846 m 0,-65.33 18.814,-10.923 m -112.87,0 18.814,10.923 m 37.614,-65.538 -18.8,-10.923 m -188.34,-21.846 -18.8,-10.715 m 282.38,10.715 -18.814,-10.715 m -112.87,0 -19.008,10.715 m 94.251,-10.715 -18.8,10.715 m -244.76,32.769 18.814,-10.923 m 263.56,174.57 v 21.846 l 18.814,10.923 18.814,-10.923 m -37.628,0 -18.814,10.923 v 21.846 l 18.814,10.715 18.814,-10.715 v -21.846 m -37.628,21.846 -18.8,10.715 v 21.846 l 18.8,10.923 18.814,-10.923 v -21.846 m 37.628,0 -18.814,-10.715 m -56.429,-54.615 v 21.846 l 18.8,10.923 m -18.8,-10.923 -18.814,10.923 v 21.846 l 18.814,10.715 m -18.814,-32.561 -18.814,-10.923 -18.814,10.923 v 21.846 l 18.814,10.715 18.814,-10.715 m -18.814,-32.769 v -21.846 l -18.814,-10.937 m -19.008,10.937 v 21.846 l 19.008,10.923 m 0,21.846 -19.008,10.715 v 21.846 l 19.008,10.923 18.814,-10.923 v -21.846 m 0,65.538 v 21.846 l 18.814,10.923 18.814,-10.923 V 520.313 L 280.51,509.39 261.696,520.313 242.882,509.39 223.874,520.313 v 21.846 l 19.008,10.923 18.814,-10.923 m 37.628,-65.538 -18.814,10.923 v 21.846 m -37.628,-21.846 v 21.846 m -19.008,32.769 -18.814,10.923 v 21.846 l 18.814,10.715 19.008,-10.715 v -21.846 m 37.628,0 v 21.846 l 18.814,10.715 18.8,-10.715 v -21.846 l -18.8,-10.923 m 56.429,-32.769 -18.814,10.923 v 21.846 l 18.814,10.923 18.814,-10.923 V 520.313 L 355.753,509.39 v -21.846 l -18.814,-10.923 m -18.814,10.923 v 21.846 l 18.814,10.923 m -18.814,32.769 18.814,-10.923 m -18.814,32.769 18.814,10.715 18.814,-10.715 v -21.846 m -94.057,-76.461 18.814,10.923 m 37.614,21.846 -18.8,10.923 m 56.429,-32.769 18.814,-10.923 m -169.51,-98.113 -18.814,10.937 v 21.846 l 18.814,10.923 18.814,-10.923 m -75.257,-21.846 v 21.846 l 18.814,10.923 18.814,-10.923 m -37.628,0 -18.814,10.923 v 21.846 l 18.814,10.715 18.814,-10.715 V 422.214 M 129.8,444.06 110.986,454.775 v 21.846 l 18.814,10.923 18.814,-10.923 v -21.846 m 75.257,0 -18.814,-10.715 -18.814,10.715 v 21.846 l 18.814,10.923 18.814,-10.923 m -18.814,-54.407 v 21.846 m -37.628,0 18.814,10.715 m -56.442,-76.267 -18.814,10.937 v 21.846 l 18.814,10.923 M 73.372,411.291 54.558,422.214 V 444.06 L 73.372,454.775 92.186,444.06 V 422.214 L 73.372,411.291 v -21.846 m 0,65.33 v 21.846 l 18.814,10.923 18.8,-10.923 m 0,-21.846 -18.8,-10.715 m 0,-21.846 18.8,-10.923 m 0,109.02 v 21.846 L 129.8,553.08 148.614,542.157 V 520.311 L 129.8,509.388 Z M 129.8,487.542 v 21.846 M 92.186,487.542 v 21.846 l 18.8,10.923 m -18.8,-10.923 -18.814,10.923 v 21.846 l 18.814,10.923 18.8,-10.923 m -37.614,0 -18.814,10.923 v 21.846 l 18.814,10.715 18.814,-10.715 V 553.08 m 37.614,0 v 21.846 l 18.814,10.715 18.814,-10.715 V 553.08 l -18.814,-10.923 m 56.442,-54.615 v 21.846 l 18.814,10.923 m -18.814,-10.923 -18.814,10.923 v 21.846 l 18.814,10.923 m -18.814,-32.769 -18.814,-10.923 -18.814,10.923 m 37.628,-43.692 -18.814,10.923 v 21.846 m 0,43.692 18.814,-10.923 m -37.628,-65.538 18.814,10.923 m -18.814,98.099 v 21.846 l 18.814,10.923 18.814,-10.923 v -21.846 l -18.814,-10.715 m 18.814,32.561 18.814,10.923 18.814,-10.923 v -21.846 m -75.257,87.384 18.814,10.923 18.814,-10.923 v -21.846 l -18.814,-10.923 -18.814,10.923 z m 37.628,0 18.814,10.923 18.814,-10.923 v -21.846 l -18.814,-10.923 -18.814,10.923 m 18.814,-32.769 v 21.846 M 167.427,618.41 v 21.846 M 73.37,585.641 v 21.846 l 18.814,10.923 18.8,-10.923 v -21.846 l -18.8,-10.715 m 18.8,32.561 18.814,10.923 18.814,-10.923 m -75.243,0 -18.814,10.923 v 21.846 l 18.814,10.923 18.814,-10.923 V 618.41 m -37.628,21.846 -19.008,10.923 v 21.846 l 19.008,10.923 18.814,-10.923 v -21.846 m -18.814,32.769 v 21.846 l 18.814,10.729 18.814,-10.729 V 683.948 L 73.369,673.025 m 75.243,-21.846 -18.814,-10.923 -18.814,10.923 v 21.846 l 18.814,10.923 18.814,-10.923 M 129.798,618.41 v 21.846 m -37.614,43.692 18.8,-10.923 m 0,-21.846 -18.8,-10.923 m 18.8,76.267 v 21.846 l 18.814,10.923 18.814,-10.923 v -21.846 l -18.814,-10.729 -18.814,10.729 -18.8,-10.729 M 73.37,716.523 v 21.846 l 18.814,10.923 18.8,-10.923 m -18.8,10.923 v 21.846 m 37.614,-21.846 v 21.846 m 37.628,-87.19 v 21.846 l 18.814,10.729 18.814,-10.729 v -21.846 m -56.442,32.575 18.814,-10.729 m -18.814,32.575 18.814,10.923 18.814,-10.923 v -21.846 m -18.814,32.769 v 21.846 m 37.628,0 V 749.292 L 186.24,738.369 m -56.442,-54.421 v 21.846 m 207.14,-120.15 v 21.846 l 18.814,10.923 18.814,-10.923 m -75.243,-21.846 v 21.846 l 18.8,10.923 18.814,-10.923 m -18.814,32.769 -18.8,10.923 v 21.846 l 18.8,10.923 18.814,-10.923 v -21.846 l -18.814,-10.923 v -21.846 m 56.442,32.769 -18.814,-10.923 -18.814,10.923 m 0,21.846 18.814,10.923 18.814,-10.923 m -18.814,-32.769 v -21.846 m -75.243,-43.484 -18.814,10.715 v 21.846 l 18.814,10.923 18.814,-10.923 m -75.45,0 19.008,10.923 18.814,-10.923 m -37.822,65.538 19.008,10.923 18.814,-10.923 v -21.846 l -18.814,-10.923 -19.008,10.923 m 75.45,21.846 -18.814,10.923 v 21.846 l 18.814,10.729 18.8,-10.729 v -21.846 m -18.8,-32.769 -18.814,-10.923 -18.814,10.923 m 18.814,32.769 -18.814,-10.923 M 242.88,640.259 v -21.846 m 37.628,0 v 21.846 m -37.628,43.692 v 21.846 l 18.814,10.729 18.814,-10.729 m -75.45,0 18.814,10.729 19.008,-10.729 m -19.008,10.729 v 21.846 l 19.008,10.923 18.814,-10.923 v -21.846 m -18.814,32.769 v 21.846 m 75.243,0 v -21.846 l -18.8,-10.923 -18.814,10.923 v 21.846 m 0,-21.846 -18.814,-10.923 m 37.628,-21.846 v 21.846 m 56.429,-32.575 -18.814,10.729 v 21.846 l 18.814,10.923 18.814,-10.923 v -21.846 l -18.814,-10.729 v -21.846 m -37.628,21.846 18.814,10.729 m 0,21.846 -18.814,10.923 m 37.628,21.846 v -21.846 m -150.69,0 18.814,-10.923 m -94.071,-163.44 -18.814,10.715 m 94.071,-10.715 -18.814,10.715 m 75.45,0 -18.814,-10.715 m 131.69,10.715 -18.814,-10.715 M -2.07,389.452 v 21.846 l 18.814,10.923 18.814,-10.923 V 389.452 L 16.744,378.515 m 18.814,32.783 19.008,10.923 m -75.45,-43.706 -18.814,10.937 v 21.846 l 18.814,10.923 18.814,-10.923 m 0,43.484 -18.814,-10.715 -18.814,10.715 v 21.846 l 18.814,10.923 18.814,-10.923 z m 0,21.846 18.814,10.923 18.814,-10.923 V 454.782 L 16.744,444.067 -2.07,454.782 m 56.636,-10.715 -19.008,10.715 m -56.442,-32.561 v 21.846 m 37.628,0 v -21.846 m -75.257,0 18.814,-10.923 m 0,43.484 -18.814,-10.715 m 0,109.02 18.814,-10.923 v -21.846 l -18.814,-10.923 m 75.257,-21.846 v 21.846 l 18.814,10.923 19.008,-10.923 V 487.549 L 35.558,476.626 m -56.442,10.923 v 21.846 l 18.814,10.923 18.814,-10.923 m -37.628,65.538 18.814,10.715 18.814,-10.715 V 553.087 L -2.07,542.164 -20.884,553.087 v 21.846 l -18.814,10.715 m 56.442,-32.561 18.814,-10.923 v -21.846 m 0,21.846 19.008,10.923 M -2.07,520.318 v 21.846 m -56.443,-54.615 18.814,-10.923 m 18.814,32.769 -18.814,10.923 m 0,21.846 18.814,10.923 m 18.814,32.561 v 21.846 l 18.814,10.923 18.814,-10.923 V 585.648 L 16.743,574.933 m 18.814,32.561 19.008,10.923 m -56.636,-10.923 -18.814,10.923 v 21.846 l 18.814,10.923 18.814,-10.923 v -21.846 m -37.628,21.846 -18.814,10.923 v 21.846 l 18.814,10.923 18.814,-10.923 v -21.846 m 0,21.846 18.814,10.923 18.814,-10.923 m 0,-21.846 -18.814,-10.923 M -58.514,618.417 -39.7,607.494 v -21.846 l -18.814,-10.715 m 0,109.02 18.814,-10.923 m 0,-21.846 -18.814,-10.923 m 0,109.04 18.814,-10.923 v -21.846 l -18.814,-10.729 m 113.08,0 -19.008,10.729 v 21.846 L 54.566,749.301 73.38,738.378 M 35.558,716.532 16.744,705.803 -2.07,716.532 v 21.846 l 18.814,10.923 18.814,-10.923 m -56.442,-54.421 v 21.846 l 18.814,10.729 m 0,21.846 -18.814,10.923 v 21.846 m 75.45,0 v -21.846 m -37.822,21.846 v -21.846 m 0,-43.498 v -21.846 m -56.442,-76.461 18.814,10.923 m 0,87.384 -18.814,10.729 m 0,21.846 18.814,10.923 m 75.45,-174.37 -19.008,10.715 M 73.38,520.316 54.566,509.393 m 0,-21.846 18.814,-10.923 m 37.614,-87.176 -18.8,-10.937 m -131.89,10.937 -18.814,-10.937 m 113.08,0 -19.008,10.937 m 244.96,-10.937 -18.814,10.937 m -94.265,-10.937 18.814,10.937 m 188.32,0 -18.814,-10.937 m 18.814,-228.97 18.814,10.923 m 0,-43.692 -18.814,10.923 m 0,414.47 18.814,10.923 m 0,-43.692 -18.814,10.923 m 18.814,185.48 -18.814,10.729 m 0,21.846 18.814,10.923 m -18.814,-403.56 18.814,10.923 m 0,-43.484 -18.814,10.715"
       clip-path="url(#a)"
       stroke-miterlimit="1"
       inkscape:connector-curvature="0"
       style="fill:none;stroke:#989898;stroke-width:2.02279997;stroke-linecap:square;stroke-miterlimit:1" />
    <g
       id="radarr-group-details"
       transform="matrix(0.74963,0,0,0.74963,-0.85254,-2.5565e-4)"
       style="fill-rule:evenodd">
      <g
         id="radarr-group-shapes-l-r"
         transform="rotate(-115,515.78471,513.91575)"
         style="fill:#f0f0f0">
        <path
           id="radarr-shape-right"
           d="m 818.96,812.82 c 76.922,-76.922 124.5,-183.19 124.5,-300.57 0,-117.38 -47.578,-223.65 -124.5,-300.57 L 518.39,512.25 Z"
           inkscape:connector-curvature="0" />
        <path
           id="radarr-shape-left"
           d="M 217.82,211.68 C 140.898,288.602 95.225157,414.37311 95.225157,531.75311 95.225157,649.13311 140.898,735.89 217.82,812.82 L 518.39,512.25 Z"
           inkscape:connector-curvature="0"
           sodipodi:nodetypes="csccc" />
      </g>
      <g
         id="radarr-group-shapes-t-b"
         style="fill:#f0f0f0"
         transform="rotate(-115,513.28342,512.32225)" />
      <path
         id="radarr-stick-2"
         d="m 301.61036,143.09609 44.55172,-22.69723 133.16516,261.34628 -44.55308,22.70099 z m 51.52008,101.11381 v 0 l 96.05216,152.89017 -14.41254,7.34563 z m 109.98343,149.2889 -65.43505,-171.99159 81.649,160.2392 -14.41628,7.34426 z"
         inkscape:connector-curvature="0"
         style="fill:#800080"
         sodipodi:nodetypes="ccccccccccccccc" />
      <path
         id="radarr-yellow-circle"
         d="m 386.18798,466.03919 c 25.52325,-70.12458 103.05765,-106.2818 173.18503,-80.75752 70.1208,25.52189 106.28179,103.05767 80.75751,173.18504 C 614.60863,628.58752 537.06911,664.74712 466.94548,639.2242 396.82093,613.70096 360.66506,536.1628 386.18798,466.03919 Z"
         inkscape:connector-curvature="0"
         style="fill:#800080" />
      <path
         id="radarr-stick-2-9"
         d="M 732.9565,875.73716 688.40477,898.43439 555.23963,637.08812 599.79271,614.38713 Z M 681.43642,774.62334 v 0 l -96.05214,-152.89016 14.41253,-7.34563 z m -109.98343,-149.28889 65.43505,171.9916 -81.649,-160.23922 14.41628,-7.34426 z"
         inkscape:connector-curvature="0"
         style="fill:#800080;fill-rule:evenodd;stroke-width:1"
         sodipodi:nodetypes="ccccccccccccccc" />
    </g>
    <path
       id="radarr-outer-ring"
       d="m 384,-0.26592 a 384,384 0 0 0 -384,384 384,384 0 0 0 384,384 384,384 0 0 0 384,-384 384,384 0 0 0 -384,-384 z m 0,15 a 369,369 0 0 1 369,369 369,369 0 0 1 -369,369 369,369 0 0 1 -369,-369 369,369 0 0 1 369,-369 z"
       inkscape:connector-curvature="0"
       style="fill:#800080;stroke-width:1.08519995" />
  </g>
</svg>
